<?xml version="1.0" encoding="utf-8"?>
<!-- Generator: Adobe Illustrator 26.5.0, SVG Export Plug-In . SVG Version: 6.00 Build 0)  -->
<svg version="1.1" id="Layer_1" xmlns="http://www.w3.org/2000/svg" xmlns:xlink="http://www.w3.org/1999/xlink" x="0px" y="0px"
	 viewBox="0 0 29.6 29.6" style="enable-background:new 0 0 29.6 29.6;" xml:space="preserve">
<style type="text/css">
	.st0{opacity:0.4;fill:#B3B3B3;}
	.st1{fill:#026CB7;}
</style>
<circle class="st0" cx="14.8" cy="14.8" r="14.5"/>
<g>
	<polygon class="st1" points="7.6,8.1 11.5,12.7 12.9,11.4 8.9,7.2 12,7.2 12.7,5.8 5.9,5.8 5.9,12.7 7.6,11.4 	"/>
	<polygon class="st1" points="22,8.1 18.1,12.7 16.8,11.4 20.7,7.2 17.6,7.2 17,5.8 23.8,5.8 23.8,12.7 22,11.4 	"/>
	<polygon class="st1" points="7.6,21.5 11.5,16.9 12.9,18.3 8.9,22.4 12,22.4 12.7,23.8 5.9,23.8 5.9,16.9 7.6,18.3 	"/>
	<polygon class="st1" points="22,21.5 18.1,16.9 16.8,18.3 20.7,22.4 17.6,22.4 17,23.8 23.8,23.8 23.8,16.9 22,18.3 	"/>
</g>
</svg>
