<?xml version="1.0" encoding="utf-8"?>
<!-- Generator: Adobe Illustrator 26.5.0, SVG Export Plug-In . SVG Version: 6.00 Build 0)  -->
<svg version="1.1" id="Layer_1" xmlns="http://www.w3.org/2000/svg" xmlns:xlink="http://www.w3.org/1999/xlink" x="0px" y="0px"
	 viewBox="0 0 17.5 23" style="enable-background:new 0 0 17.5 23;" xml:space="preserve">
<style type="text/css">
	.st0{fill:none;stroke:#006DB7;stroke-width:1.0395;stroke-miterlimit:10;}
	.st1{fill:none;stroke:#006DB7;stroke-width:1.0857;stroke-miterlimit:10;}
</style>
<g>
	<g>
		<circle class="st0" cx="8.8" cy="7.4" r="4.2"/>
		<circle class="st0" cx="8.8" cy="7.4" r="4.2"/>
	</g>
	<g>
		<path class="st1" d="M8.8,0.7C5,0.7,2,3.7,2,7.4C2,7.7,2,8,2.1,8.3c0,1,0.3,6.6,6.7,13.8c6.4-7.2,6.7-12.8,6.7-13.8
			c0.1-0.3,0.1-0.6,0.1-0.9C15.5,3.7,12.5,0.7,8.8,0.7z M8.8,3.3c2.3,0,4.2,1.9,4.2,4.2s-1.9,4.2-4.2,4.2S4.6,9.7,4.6,7.4
			C4.6,5.1,6.4,3.3,8.8,3.3z"/>
		<path class="st1" d="M8.9,22.3c-0.1-0.1-0.1-0.1-0.2-0.2"/>
		<path class="st1" d="M2.1,8.1c0,0,0,0.1,0,0.2"/>
		<path class="st1" d="M8.8,22.1c-0.1,0.1-0.1,0.1-0.2,0.2"/>
		<path class="st1" d="M15.4,8.3c0-0.1,0-0.2,0-0.2"/>
	</g>
</g>
</svg>
