<?xml version="1.0" encoding="utf-8"?>
<!-- Generator: Adobe Illustrator 26.5.0, SVG Export Plug-In . SVG Version: 6.00 Build 0)  -->
<svg version="1.1" id="Layer_1" xmlns="http://www.w3.org/2000/svg" xmlns:xlink="http://www.w3.org/1999/xlink" x="0px" y="0px"
	 viewBox="0 0 34 33.6" style="enable-background:new 0 0 34 33.6;" xml:space="preserve">
<style type="text/css">
	.st0{fill:#757575;}
</style>
<path class="st0" d="M20.9,32.8l-0.4-0.1c-0.5-0.1-0.8-0.6-0.7-1.1L27,1.5c0.1-0.5,0.6-0.8,1.1-0.7l0.4,0.1C29,1.1,29.3,1.5,29.2,2
	L22,32.2C21.9,32.6,21.4,32.9,20.9,32.8z"/>
<path class="st0" d="M6.1,32.8l-0.4-0.1c-0.5-0.1-0.8-0.6-0.7-1.1l7.2-30.1c0.1-0.5,0.6-0.8,1.1-0.7l0.4,0.1C14.2,1,14.5,1.5,14.4,2
	L7.2,32.1C7.1,32.6,6.6,32.9,6.1,32.8z"/>
<path class="st0" d="M0.6,9.3V8.8c0-0.5,0.4-0.9,0.9-0.9l31,0c0.5,0,0.9,0.4,0.9,0.9l0,0.5c0,0.5-0.4,0.9-0.9,0.9l-31,0
	C1,10.2,0.6,9.8,0.6,9.3z"/>
<path class="st0" d="M0.6,24.3v-0.5c0-0.5,0.4-0.9,0.9-0.9l31,0c0.5,0,0.9,0.4,0.9,0.9v0.5c0,0.5-0.4,0.9-0.9,0.9l-31,0
	C1,25.2,0.6,24.8,0.6,24.3z"/>
</svg>
