<?xml version="1.0" encoding="utf-8"?>
<!-- Generator: Adobe Illustrator 26.5.0, SVG Export Plug-In . SVG Version: 6.00 Build 0)  -->
<svg version="1.1" id="Layer_1" xmlns="http://www.w3.org/2000/svg" xmlns:xlink="http://www.w3.org/1999/xlink" x="0px" y="0px"
	 viewBox="0 0 34 40" style="enable-background:new 0 0 34 40;" xml:space="preserve">
<style type="text/css">
	.st0{fill:none;stroke:#757575;stroke-miterlimit:10;}
</style>
<line class="st0" x1="14.4" y1="15.6" x2="8.8" y2="15.6"/>
<polyline class="st0" points="6.6,13.8 6.6,9.6 26.6,9.6 26.6,13.8 "/>
<line class="st0" x1="24.4" y1="15.6" x2="17.8" y2="15.6"/>
<image style="overflow:visible;" width="570" height="104" xlink:href="../../../../../Desktop/Schermafbeelding 2022-10-03 om 20.02.33.png"  transform="matrix(0.5 0 0 0.5 6.0601 117.0601)">
</image>
<image style="overflow:visible;" width="570" height="104" xlink:href="../../../../../Desktop/Schermafbeelding 2022-10-03 om 20.02.33.png"  transform="matrix(0.5 0 0 0.5 6.0601 176.0601)">
</image>
<path class="st0" d="M16.6,2.3c0,0-5.6,6,0,6S16.6,2.3,16.6,2.3z"/>
<g>
	<g>
		<path class="st0" d="M26.1,13.3c0,0-5.6,6,0,6S26.1,13.3,26.1,13.3z"/>
		<path class="st0" d="M7.1,13.3c0,0-5.6,6,0,6S7.1,13.3,7.1,13.3z"/>
		<path class="st0" d="M16.1,13.3c0,0-5.6,6,0,6S16.1,13.3,16.1,13.3z"/>
	</g>
</g>
<rect x="0.6" y="20.6" class="st0" width="32" height="9"/>
<rect x="0.6" y="29.6" class="st0" width="32" height="9"/>
</svg>
