<?xml version="1.0" encoding="utf-8"?>
<!-- Generator: Adobe Illustrator 26.5.0, SVG Export Plug-In . SVG Version: 6.00 Build 0)  -->
<svg version="1.1" id="Layer_1" xmlns="http://www.w3.org/2000/svg" xmlns:xlink="http://www.w3.org/1999/xlink" x="0px" y="0px"
	 viewBox="0 0 34 40" style="enable-background:new 0 0 34 40;" xml:space="preserve">
<style type="text/css">
	.st0{fill:none;stroke:#757575;stroke-miterlimit:10;}
</style>
<image style="overflow:visible;" width="570" height="104" xlink:href="../../../../../Desktop/Schermafbeelding 2022-10-03 om 20.02.33.png"  transform="matrix(0.5 0 0 0.5 6.0601 176.0601)">
</image>
<polygon class="st0" points="17.1,38.1 2.1,31.1 2.1,11.1 17.1,18.1 "/>
<polyline class="st0" points="2.1,31.1 17.1,38.1 17.1,18.1 2.1,11.1 10.6,6.6 "/>
<polygon class="st0" points="17.6,38.1 32.6,31.1 32.6,11.1 17.6,18.1 "/>
<polyline class="st0" points="32.6,31.1 17.6,38.1 17.6,18.1 32.6,11.1 22.6,6.1 22.6,10.1 "/>
<path class="st0" d="M20.2,8.1c1.5,0.4,2.4,1.2,2.4,2c0,1.4-2.7,2.5-6,2.5s-6-1.1-6-2.5c0-0.8,0.9-1.6,2.4-2"/>
<ellipse class="st0" cx="16.6" cy="6.1" rx="6" ry="2.5"/>
<line class="st0" x1="10.6" y1="6.1" x2="10.6" y2="10.1"/>
<path class="st0" d="M32,11.3"/>
</svg>
