<?xml version="1.0" encoding="utf-8"?>
<!-- Generator: Adobe Illustrator 26.4.0, SVG Export Plug-In . SVG Version: 6.00 Build 0)  -->
<svg version="1.1" id="Layer_1" xmlns="http://www.w3.org/2000/svg" xmlns:xlink="http://www.w3.org/1999/xlink" x="0px" y="0px"
	 viewBox="0 0 17.5 23" style="enable-background:new 0 0 17.5 23;" xml:space="preserve">
<style type="text/css">
	.st0{fill:none;stroke:#FFFFFF;stroke-width:1.0395;stroke-miterlimit:10;}
	.st1{fill:none;stroke:#FFFFFF;stroke-width:1.0857;stroke-miterlimit:10;}
</style>
<g>
	<g>
		<circle class="st0" cx="8.75" cy="7.41" r="4.16"/>
		<circle class="st0" cx="8.75" cy="7.41" r="4.16"/>
	</g>
	<g>
		<path class="st1" d="M8.75,0.66c-3.73,0-6.76,3.03-6.76,6.76c0,0.31,0.02,0.61,0.07,0.9c0,1.03,0.28,6.65,6.69,13.84
			c6.41-7.19,6.69-12.81,6.69-13.84c0.05-0.3,0.07-0.6,0.07-0.9C15.51,3.68,12.48,0.66,8.75,0.66z M8.75,3.26
			c2.3,0,4.16,1.86,4.16,4.16c0,2.3-1.85,4.16-4.16,4.16S4.59,9.71,4.59,7.41C4.59,5.12,6.45,3.26,8.75,3.26z"/>
		<path class="st1" d="M8.92,22.34c-0.06-0.06-0.11-0.13-0.17-0.19"/>
		<path class="st1" d="M2.07,8.15c0,0-0.01,0.06-0.01,0.17"/>
		<path class="st1" d="M8.75,22.15c-0.06,0.06-0.11,0.13-0.17,0.19"/>
		<path class="st1" d="M15.44,8.32c0-0.11-0.01-0.17-0.01-0.17"/>
	</g>
</g>
</svg>
