<?xml version="1.0" encoding="utf-8"?>
<!-- Generator: Adobe Illustrator 26.4.0, SVG Export Plug-In . SVG Version: 6.00 Build 0)  -->
<svg version="1.1" id="Layer_1" xmlns="http://www.w3.org/2000/svg" xmlns:xlink="http://www.w3.org/1999/xlink" x="0px" y="0px"
	 viewBox="0 0 326 75.2" style="enable-background:new 0 0 326 75.2;" xml:space="preserve">
<style type="text/css">
	.st0{fill:#FFCF02;stroke:#000000;stroke-width:3.7043;stroke-miterlimit:10;}
</style>
<g>
	<path class="st0" d="M181.5,64.2h-37c-7,0-13-5.9-13-13V25.4c0-7,5.9-13,13-13h37c7,0,13,5.9,13,13v25.9
		C194.5,58.3,188.6,64.2,181.5,64.2z"/>
	<path class="st0" d="M177.8,11.6h-29.6V6.1c0-2.2,1.9-4.1,4.1-4.1h21.1c2.2,0,4.4,1.9,4.4,4.1V11.6L177.8,11.6z"/>
	<path class="st0" d="M181.5,64.6h-37v4.1c0,2.6,1.9,4.4,4.4,4.4h28.2c2.6,0,4.4-1.9,4.4-4.4V64.6L181.5,64.6z"/>
	<path class="st0" d="M151.9,43.9c0,0,11.5,11.1,20.4,0"/>
	<g>
		<circle class="st0" cx="153.7" cy="32.8" r="1.9"/>
		<circle class="st0" cx="172.3" cy="32.8" r="1.9"/>
	</g>
</g>
</svg>
