<?xml version="1.0" encoding="utf-8"?>
<!-- Generator: Adobe Illustrator 26.4.0, SVG Export Plug-In . SVG Version: 6.00 Build 0)  -->
<svg version="1.1" id="Layer_1" xmlns="http://www.w3.org/2000/svg" xmlns:xlink="http://www.w3.org/1999/xlink" x="0px" y="0px"
	 viewBox="0 0 18 18" style="enable-background:new 0 0 18 18;" xml:space="preserve">
<path d="M7.5,0.5c-3.87,0-7,3.13-7,7s3.13,7,7,7c1.46,0,2.8-0.44,3.91-1.19c0.74-0.5,1.37-1.13,1.87-1.86
	c0.77-1.12,1.22-2.48,1.22-3.95C14.5,3.63,11.37,0.5,7.5,0.5z M7.5,12.5c-2.76,0-5-2.24-5-5s2.24-5,5-5s5,2.24,5,5
	S10.26,12.5,7.5,12.5z"/>
<path d="M11.41,13.31l4.09,4.19c0,0,2,0,2-2c-2-2-4.22-4.05-4.22-4.05L11.41,13.31z"/>
</svg>
